<?xml version="1.0" encoding="UTF-8"?>
<svg width="22px" height="22px" viewBox="0 0 22 22" version="1.1" xmlns="http://www.w3.org/2000/svg" xmlns:xlink="http://www.w3.org/1999/xlink">
    <!-- Generator: Sketch 58 (84663) - https://sketch.com -->
    <title>social/linkedin</title>
    <desc>Created with Sketch.</desc>
    <g id="Design" stroke="none" stroke-width="1" fill="none" fill-rule="evenodd">
        <g id="Artboard" transform="translate(-72.000000, -178.000000)" fill="#2D354C">
            <g id="social-media" transform="translate(72.000000, 176.000000)">
                <g id="social/linkedin" transform="translate(0.000000, 2.000000)">
                    <path d="M20.0099,0 L1.99008,0 C0.891,0 0,0.891 0,1.99008 L0,20.0099 C0,21.109 0.891,22 1.99008,22 L20.0099,22 C21.109,22 22,21.109 22,20.0099 L22,1.99008 C22,0.891 21.109,0 20.0099,0 Z M6.80773,18.9963 C6.80773,19.3161 6.54846,19.5754 6.22859,19.5754 L3.76332,19.5754 C3.44346,19.5754 3.18418,19.3161 3.18418,18.9963 L3.18418,8.66195 C3.18418,8.34209 3.44346,8.08281 3.76332,8.08281 L6.22859,8.08281 C6.54846,8.08281 6.80773,8.34209 6.80773,8.66195 L6.80773,18.9963 Z M4.99596,7.10865 C3.70251,7.10865 2.65394,6.06008 2.65394,4.76663 C2.65394,3.47318 3.70251,2.42461 4.99596,2.42461 C6.28941,2.42461 7.33798,3.47318 7.33798,4.76663 C7.33798,6.06008 6.28947,7.10865 4.99596,7.10865 Z M19.6912016,19.0429 C19.6912016,19.337 19.4527,19.5754 19.1587,19.5754 L16.5132,19.5754 C16.2192,19.5754 15.9808,19.337 15.9808,19.0429 L15.9808,14.1955 C15.9808,13.4724 16.1929,11.0268 14.091,11.0268 C12.4606,11.0268 12.1299,12.7007 12.0635,13.452 L12.0635,19.0429 C12.0635,19.337 11.8252,19.5754 11.5311,19.5754 L8.97249,19.5754 C8.67842,19.5754 8.43999,19.337 8.43999,19.0429 L8.43999,8.6153 C8.43999,8.32124 8.67842,8.08281 8.97249,8.08281 L11.5311,8.08281 C11.8251,8.08281 12.0635,8.32124 12.0635,8.6153 L12.0635,9.5169 C12.6681,8.60966 13.5665,7.9094 15.4794,7.9094 C19.7154,7.9094 19.6912016,11.8669 19.6912016,14.0413 L19.6912016,19.0429 Z" id="Shape"></path>
                </g>
            </g>
        </g>
    </g>
</svg>